<svg width="12" height="12" viewBox="0 0 12 12" fill="none" xmlns="http://www.w3.org/2000/svg">
<rect width="12" height="12" fill="#1E1E1E"/>
<g id="&#227;&#131;&#150;&#227;&#131;&#173;&#227;&#130;&#176;&#239;&#188;&#136;&#232;&#169;&#179;&#231;&#180;&#176;&#227;&#131;&#154;&#227;&#131;&#188;&#227;&#130;&#184;&#239;&#188;&#137;" clip-path="url(#clip0_2_2)">
<rect width="1280" height="3007" transform="translate(-198 -354)" fill="white"/>
<path id="&#233;&#149;&#183;&#230;&#150;&#185;&#229;&#189;&#162; 1686" d="M-8 -4.76837e-07C-8 -1.65685 -6.65685 -3 -5 -3H58C59.6569 -3 61 -1.65685 61 2.38419e-07V14C61 15.6569 59.6569 17 58 17H-5C-6.65685 17 -8 15.6569 -8 14V-4.76837e-07Z" fill="#305097"/>
<g id="&#227;&#130;&#176;&#227;&#131;&#171;&#227;&#131;&#188;&#227;&#131;&#151; 357">
<path id="&#227;&#131;&#145;&#227;&#130;&#185; 51" d="M2.9707 6.77472C2.9707 6.77472 4.62988 5.41934 4.9834 3.94431C5.33691 2.46927 5.72827 0.916565 5.72827 0.916565H6.91064V4.87695L10.7925 3.94431C10.7925 3.94431 11.3799 4.49208 11.2383 4.87695C11.0964 5.26181 10.7925 5.71991 10.7925 5.71991L11.2383 6.31915V7.3364L10.7925 7.79355L11.2383 8.95667L10.7925 10.1719L9.94287 10.8112H2.9707V6.77472Z" fill="white"/>
<rect id="&#233;&#149;&#183;&#230;&#150;&#185;&#229;&#189;&#162; 1687" y="6" width="2" height="6" fill="white"/>
</g>
</g>
<defs>
<clipPath id="clip0_2_2">
<rect width="1280" height="3007" fill="white" transform="translate(-198 -354)"/>
</clipPath>
</defs>
</svg>
