<svg width="10" height="15" viewBox="0 0 10 15" fill="none" xmlns="http://www.w3.org/2000/svg">
<path d="M1.63821 9.31608C4.3639 14.5122 7.42583 15.047 8.3161 14.58C8.40085 14.5354 8.47491 14.4968 8.54829 14.4581L6.46342 10.4834C6.3871 10.5226 6.30921 10.5625 6.23054 10.6038C5.51272 10.9808 4.79567 9.8924 3.87707 8.14138C2.95853 6.39036 2.47063 5.18188 3.18841 4.8052C3.26781 4.76393 3.34428 4.72291 3.41996 4.68256L1.33509 0.707421C1.26093 0.74644 1.18761 0.785014 1.10287 0.829324C0.212638 1.29629 -1.08749 4.12021 1.63821 9.31608ZM9.8092 13.7967C10.1533 13.6162 9.96453 13.2208 9.76866 12.848C9.76866 12.848 8.51838 10.4651 8.36785 10.1781C8.21733 9.89108 7.96818 9.72913 7.76694 9.83471C7.64066 9.90103 7.34643 10.0409 6.96735 10.229L9.04824 14.1957C9.39541 14.0139 9.5853 13.9139 9.8092 13.7967ZM4.6949 3.97851C4.89606 3.87327 4.90414 3.57536 4.75356 3.28872C4.60377 3.00134 3.35349 0.618705 3.35349 0.618705C3.15763 0.245454 2.9401 -0.134171 2.59596 0.0463534C2.37211 0.163598 2.18217 0.263494 1.83505 0.445338L3.91595 4.41249C4.28641 4.20736 4.56858 4.04478 4.6949 3.97851Z" fill="#1B224C"/>
</svg>
