<svg width="11" height="10" viewBox="0 0 11 10" fill="none" xmlns="http://www.w3.org/2000/svg">
<path d="M5.50635 3.51861C5.43408 3.13375 5.39746 2.11927 6.0083 1.5703C6.61865 1.02134 8.03369 0.311911 9.2832 1.5703C9.97314 1.3426 10.4058 1.17765 10.6675 0.984213C10.4141 1.67341 9.7373 2.15467 9.7373 2.15467L10.9673 1.8653C10.4902 2.43232 9.82373 2.94172 9.82373 2.94172C9.82373 2.94172 10.0249 5.78478 8.38525 7.41779C6.74561 9.0508 4.10693 10.445 0.198242 8.58462C1.99219 8.6654 3.48926 7.63264 3.48926 7.63264C3.48926 7.63264 1.92822 7.53606 1.42139 6.16599C1.93115 6.15058 2.37402 6.08112 2.37402 6.08112C2.37402 6.08112 0.580078 5.58111 0.639648 3.94016C1.03906 4.13289 1.59814 4.16216 1.59814 4.16216C1.59814 4.16216 -0.00683594 2.82027 0.938477 1.22684C1.61914 2.04508 3.61279 3.59855 5.50635 3.51861Z" fill="white"/>
</svg>
